<?xml version="1.0" encoding="UTF-8" standalone="no"?>
<!-- Created with Inkscape (http://www.inkscape.org/) -->

<svg
   width="121.938mm"
   height="121.938mm"
   viewBox="0 0 121.938 121.938"
   version="1.1"
   id="svg1"
   xml:space="preserve"
   sodipodi:docname="fidra_logo_new_lightMode copy.svg"
   inkscape:version="1.4.3 (0d15f75, 2025-12-25)"
   inkscape:export-filename="fidra_logo_new_lightMode.png"
   inkscape:export-xdpi="300"
   inkscape:export-ydpi="300"
   xmlns:inkscape="http://www.inkscape.org/namespaces/inkscape"
   xmlns:sodipodi="http://sodipodi.sourceforge.net/DTD/sodipodi-0.dtd"
   xmlns="http://www.w3.org/2000/svg"
   xmlns:svg="http://www.w3.org/2000/svg"><sodipodi:namedview
     id="namedview1"
     pagecolor="#505050"
     bordercolor="#ffffff"
     borderopacity="1"
     inkscape:showpageshadow="0"
     inkscape:pageopacity="0"
     inkscape:pagecheckerboard="1"
     inkscape:deskcolor="#505050"
     inkscape:document-units="mm"
     inkscape:zoom="0.50555294"
     inkscape:cx="270.0014"
     inkscape:cy="315.49614"
     inkscape:window-width="1158"
     inkscape:window-height="730"
     inkscape:window-x="312"
     inkscape:window-y="80"
     inkscape:window-maximized="0"
     inkscape:current-layer="layer1" /><defs
     id="defs1" /><g
     inkscape:label="Layer 1"
     inkscape:groupmode="layer"
     id="layer1"
     transform="translate(-44.030998,-87.530998)"><path
       style="display:inline;fill:#89b0ae;fill-opacity:1;stroke-width:0.376127"
       d="m 150.90695,87.592625 c 0,0 0.55521,2.781975 0.32622,5.820652 -0.27568,3.65832 -1.66666,7.684733 -1.67675,7.684603 l -31.19294,-0.41266 c -7.35509,-0.0973 -12.40886,0.90304 -14.87908,5.53721 -3.04817,5.71845 -2.55232,14.25131 -2.55232,14.25131 l 0.0533,19.54145 c 0,0 4.28113,-3.48311 9.09631,-3.48218 l 26.00035,0.006 c 0,0 -0.11486,3.46511 -0.48082,6.18867 -0.32108,2.38941 -2.34429,6.95899 -2.34429,6.95899 0,0 -18.27529,-0.4018 -22.38363,0.21732 -2.00949,0.30282 -4.23768,2.60781 -5.65024,4.34633 -1.41255,1.73854 -12.169746,13.25632 -12.169746,13.25632 0,0 7.714746,6.3022 7.823416,15.86414 0.96528,7.42169 -3.317766,17.06736 -10.647676,22.1436 -4.711637,3.26299 -13.474489,3.93441 -13.474489,3.93441 0.01861,0.006 2.191904,-1.62716 4.077371,-4.21865 1.661173,-2.28321 3.085464,-5.96468 3.094082,-8.27707 0.01645,-4.41164 0.184405,-17.18447 0.184405,-17.18447 0,0 -0.06541,-2.75502 -2.357575,-4.98184 -2.423393,-2.3543 -14.77754,-14.01693 -14.77754,-14.01693 l 9.018649,-9.77925 7.497428,7.17146 13.039009,-14.34293 -12.713036,-11.7351 c 0.0014,-11.85498 -0.368608,-25.39591 5.900186,-33.532468 3.81176,-4.947454 10.820986,-10.976408 19.608776,-11.000255 23.34693,-0.06336 41.58075,0.04222 41.58075,0.04222 z"
       id="path1"
       sodipodi:nodetypes="cscssccscscssccscsscscccccsscc" /><path
       id="path3"
       style="display:inline;fill:#313e50;fill-opacity:1;stroke-width:0.482347"
       d="m 59.432642,113.55997 v 95.90883 l 16.980359,-0.55764 v -95.35119 z" /><path
       id="path4"
       style="display:inline;fill:#313e50;fill-opacity:1;stroke-width:0.376127"
       d="m 85.863743,87.530998 c 0,0 -26.431101,-0.171954 -26.431101,26.028972 0,0 6.247116,22.10837 6.619758,22.49056 l 21.560374,17.57756 8.9176,-9.80944 -12.712662,-11.73487 -5.384792,-5.38479 c 0,0 -2.117184,-1.42868 -2.117184,-4.24687 l -0.09256,-6.81876 c 0.662559,-12.09799 8.022109,-14.05426 11.850938,-14.56759 0.48963,-0.88468 1.03516,-1.725211 1.64335,-2.514619 3.68256,-4.779738 10.349336,-10.56897 18.721156,-10.977481 z"
       sodipodi:nodetypes="csccccccccccc" /><path
       id="path6"
       style="fill:#313e50;fill-opacity:1;stroke-width:0.376127"
       d="m 120.11473,149.56121 c -0.0229,0.0114 -3.01554,1.43436 -5.40243,2.0114 -2.69554,0.65165 -7.41146,0.45048 -7.43218,0.44959 l -2.1451,2.33463 c -1.71874,2.05385 -12.066086,13.13313 -12.081626,13.14976 0.0206,0.0169 7.714496,6.31512 7.823006,15.86419 0.0613,0.47163 0.10164,0.95204 0.12126,1.43987 v -19.9083 h 9.48472 c 0,0 13.23268,1.00277 22.7748,-15.21626 0,0 -6.87729,-0.1509 -13.14241,-0.12495 z" /><path
       id="path7"
       style="fill:#313e50;fill-opacity:1;stroke-width:0.376127"
       d="m 143.70936,101.02095 c -0.004,0.003 -5.88186,4.02653 -8.80078,4.98589 -5.17444,1.70068 -9.57876,1.42591 -9.57876,1.42591 0,0 -14.26381,0.096 -22.51842,0.2292 -2.29791,5.60581 -1.87916,12.81184 -1.87916,12.81184 0,0 23.541,-0.0566 23.72466,-0.0735 6.07525,-0.56112 12.78841,-3.43617 17.69487,-8.0074 5.59312,-5.21095 7.20267,-11.28807 7.20446,-11.29484 z" /></g></svg>
